<?xml version="1.0" encoding="UTF-8"?>
<svg version="1.1" xmlns="http://www.w3.org/2000/svg" width="204" height="192">
<path d="M0 0 C67.32 0 134.64 0 204 0 C204 63.36 204 126.72 204 192 C136.68 192 69.36 192 0 192 C0 128.64 0 65.28 0 0 Z " fill="#212121" transform="translate(0,0)"/>
<path d="M0 0 C8.1699132 5.65438134 13.16589703 12.36901234 15.8125 21.9375 C16.10021068 26.63677446 16.13128463 31.2944826 16 36 C15.979375 37.155 15.95875 38.31 15.9375 39.5 C13.71436819 47.7996921 8.16353977 55.26503768 1 60 C-8.86630142 65.65351837 -20.82140012 67.04682231 -31.9375 64.0625 C-40.48292849 60.56136328 -48.28511164 52.21334205 -51.9609375 43.80078125 C-55.25963906 34.40402131 -55.49050984 24.37286486 -51.25 15.2734375 C-46.28442581 6.24229945 -39.34849016 -0.16104466 -29.625 -3.9375 C-19.13780104 -6.86287655 -9.50098535 -5.09576658 0 0 Z " fill="#EEEEEE" transform="translate(81,66)"/>
<path d="M0 0 C7.69627003 5.45762114 13.57859739 12.29052555 15.6796875 21.64453125 C16.87107129 32.81547396 16.15692449 42.04845678 9.4921875 51.26953125 C3.7421916 58.27582877 -3.32512936 63.74406208 -12.53930664 64.93017578 C-14.82824799 65.04473443 -17.09147328 65.05451353 -19.3828125 65.01953125 C-20.14658203 65.03113281 -20.91035156 65.04273438 -21.69726562 65.0546875 C-30.2130118 65.01097965 -37.25941517 61.70542858 -43.33203125 55.6328125 C-50.82351044 47.47665493 -54.05687447 41.93718509 -53.8828125 30.83203125 C-53.87113037 29.84952393 -53.85944824 28.8670166 -53.84741211 27.85473633 C-53.53643261 17.68901124 -50.86689758 12.14072357 -43.9453125 4.76953125 C-31.31762763 -7.10426199 -15.12043647 -8.83298225 0 0 Z " fill="#EEEEEE" transform="translate(160.3203125,66.35546875)"/>
<path d="M0 0 C6.21074122 2.74300092 11.20453588 7.10764348 14.0703125 13.3203125 C15.85987423 18.478461 16.06077181 24.11864774 14.16015625 29.28125 C10.78214436 35.19561426 5.4794177 39.8401941 -1 42 C-8.39141959 42.95724942 -13.12997156 42.06867926 -19.125 37.60546875 C-23.66780679 33.71569043 -26.40478311 29.88308161 -27.328125 23.859375 C-27.61887203 17.91982856 -26.22383774 13.00023813 -23 8 C-16.35549594 0.78508608 -9.76489213 -1.40898695 0 0 Z " fill="#242424" transform="translate(153,73)"/>
<path d="M0 0 C5.49192987 2.76458165 10.18938086 6.33845406 12.4921875 12.16015625 C13.54642398 19.12385433 14.19293923 26.76199194 10.0546875 32.84765625 C4.9500738 38.22658331 -0.6016046 41.39206636 -8.0703125 41.78515625 C-14.43802637 41.46454408 -18.54252507 39.04979859 -23.0390625 34.66796875 C-27.90756543 29.20505558 -29.03058239 24.07135827 -28.88671875 16.9453125 C-28.09274743 11.10921403 -24.77896601 7.07848146 -20.4453125 3.28515625 C-14.03906592 -1.34914979 -7.69707601 -2.57768122 0 0 Z " fill="#232323" transform="translate(75.5078125,73.83984375)"/>
<path d="M0 0 C1.65 0 3.3 0 5 0 C5 1.65 5 3.3 5 5 C3.35 4.67 1.7 4.34 0 4 C0 2.68 0 1.36 0 0 Z " fill="#DFDFDF" transform="translate(154,78)"/>
<path d="M0 0 C2.475 0.495 2.475 0.495 5 1 C5 2.32 5 3.64 5 5 C3.35 5 1.7 5 0 5 C0 3.35 0 1.7 0 0 Z " fill="#DEDEDE" transform="translate(75,78)"/>
<path d="M0 0 C0.66 0 1.32 0 2 0 C0.70700306 2.88437779 -0.65941363 4.87219421 -3 7 C-3.66 6.67 -4.32 6.34 -5 6 C-3.38405168 3.95880212 -1.7143618 1.95927063 0 0 Z " fill="#C9C9C9" transform="translate(38,70)"/>
</svg>
